<svg width="710" height="168" viewBox="0 0 710 168" fill="none" xmlns="http://www.w3.org/2000/svg">
<rect width="168" height="168" rx="30.5455" fill="white"></rect>
<path d="M70.6363 97.3643L30.5454 137.455H57.2727L84 110.728L70.6363 97.3643Z" fill="#02ABFF"></path>
<path d="M30.5454 137.455V110.728L57.2727 84.0005H84L110.727 110.728V137.455L70.6363 97.3641L30.5454 137.455Z" fill="#10E2F0"></path>
<path d="M84 84.0007H57.2727L30.5454 57.2734H57.2727L84 84.0007Z" fill="#02ABFF"></path>
<path d="M110.727 110.728L84 84.0005H110.727L137.455 110.728H110.727Z" fill="#75F6FF"></path>
<path d="M110.727 30.5459L84 57.2732L97.3636 70.6368L137.455 30.5459H110.727Z" fill="#75F6FF"></path>
<path d="M57.2727 57.2732V30.5459L97.3636 70.6368L137.455 30.5459V57.2732L110.727 84.0004H84L57.2727 57.2732Z" fill="#10E2F0"></path>
<path d="M110.727 110.728V137.455H137.455V110.728H110.727Z" fill="#20B5FF"></path>
<path d="M57.2727 30.5459H30.5454V57.2732H57.2727V30.5459Z" fill="#20B5FF"></path>
<path d="M222.012 119.721C217.14 119.721 212.688 118.923 208.656 117.327C204.624 115.647 201.138 113.337 198.198 110.397C195.342 107.457 193.074 104.013 191.394 100.065C189.798 96.0332 189 91.7072 189 87.0872V83.3072C189 78.7712 189.84 74.5292 191.52 70.5812C193.2 66.6332 195.468 63.2312 198.324 60.3752C201.264 57.5192 204.708 55.2932 208.656 53.6972C212.604 52.0172 216.846 51.1772 221.382 51.1772H222.516C228.312 51.1772 233.562 52.2692 238.266 54.4532C242.97 56.6372 247.128 59.9132 250.74 64.2812L233.73 77.1332C231.798 74.0252 230.118 71.8832 228.69 70.7072C227.262 69.5312 225.582 68.9432 223.65 68.9432H223.146C221.802 68.9432 220.584 69.2792 219.492 69.9512C218.484 70.5392 217.644 71.5052 216.972 72.8492C216.3 74.1092 215.754 75.7052 215.334 77.6372C214.998 79.5692 214.83 81.8792 214.83 84.5672V86.3312C214.83 88.7672 215.04 90.9512 215.46 92.8832C215.88 94.7312 216.468 96.2852 217.224 97.5452C217.98 98.8052 218.862 99.7712 219.87 100.443C220.962 101.115 222.18 101.451 223.524 101.451H224.532C226.464 101.451 228.228 100.779 229.824 99.4352C231.42 98.0072 233.058 95.7812 234.738 92.7572L251.37 106.743C247.842 111.111 243.81 114.387 239.274 116.571C234.738 118.671 229.404 119.721 223.272 119.721H222.012Z" fill="white"></path>
<path d="M256.635 118.209V27.4892H281.709V59.1152C284.481 56.5952 287.589 54.6212 291.033 53.1932C294.561 51.7652 298.257 51.0512 302.121 51.0512C309.177 51.0512 314.637 53.2772 318.501 57.7292C322.449 62.1812 324.423 68.3552 324.423 76.2512V118.209H299.349V81.9212C299.349 78.1412 298.719 75.4112 297.459 73.7312C296.199 71.9672 294.141 71.0852 291.285 71.0852C289.689 71.0852 288.261 71.3372 287.001 71.8412C285.825 72.3452 284.817 73.1012 283.977 74.1092C283.221 75.0332 282.633 76.2512 282.213 77.7632C281.877 79.1912 281.709 80.8712 281.709 82.8032V118.209H256.635Z" fill="white"></path>
<path d="M354.156 119.847C350.964 119.847 348.024 119.385 345.336 118.461C342.648 117.537 340.296 116.235 338.28 114.555C336.348 112.875 334.836 110.859 333.744 108.507C332.652 106.071 332.106 103.425 332.106 100.569V98.8052C332.106 91.7492 335.004 86.4572 340.8 82.9292C346.68 79.3172 355.836 77.5112 368.268 77.5112H372.3V77.2592C372.3 74.8232 371.628 72.8492 370.284 71.3372C368.94 69.8252 366.756 69.0692 363.732 69.0692H363.228C360.456 69.0692 357.474 69.5312 354.282 70.4552C351.174 71.2952 347.73 72.8072 343.95 74.9912L335.13 58.7372C339.078 56.3012 343.698 54.4112 348.99 53.0672C354.366 51.7232 359.7 51.0512 364.992 51.0512H366.504C370.956 51.0512 374.946 51.6812 378.474 52.9412C382.086 54.1172 385.152 55.9232 387.672 58.3592C390.192 60.7112 392.124 63.6092 393.468 67.0532C394.812 70.4972 395.484 74.4452 395.484 78.8972V100.443C395.484 103.635 395.694 106.617 396.114 109.389C396.534 112.077 397.08 115.017 397.752 118.209H374.946C374.61 117.201 374.274 116.151 373.938 115.059C373.686 113.883 373.476 112.623 373.308 111.279C371.46 113.967 368.814 116.067 365.37 117.579C362.01 119.091 358.272 119.847 354.156 119.847ZM361.716 102.333C363.396 102.333 365.202 101.955 367.134 101.199C369.066 100.443 370.788 99.2252 372.3 97.5452V89.8592H368.898C364.614 89.8592 361.296 90.4892 358.944 91.7492C356.592 93.0092 355.416 94.7312 355.416 96.9152V97.5452C355.416 98.2172 355.542 98.8472 355.794 99.4352C356.13 100.023 356.55 100.527 357.054 100.947C357.642 101.367 358.314 101.703 359.07 101.955C359.91 102.207 360.792 102.333 361.716 102.333Z" fill="white"></path>
<path d="M407.614 118.209V52.6892H432.688V118.209H407.614ZM419.836 46.3892C415.804 46.3892 412.528 45.3392 410.008 43.2392C407.572 41.1392 406.354 38.2832 406.354 34.6712C406.354 31.0592 407.572 28.1612 410.008 25.9772C412.528 23.7932 415.804 22.7012 419.836 22.7012C424.12 22.7012 427.522 23.7932 430.042 25.9772C432.646 28.1612 433.948 31.0592 433.948 34.6712C433.948 38.2832 432.646 41.1392 430.042 43.2392C427.522 45.3392 424.12 46.3892 419.836 46.3892Z" fill="white"></path>
<path d="M444.9 118.209V52.6892H464.808C465.228 54.1172 465.648 55.8392 466.068 57.8552C466.488 59.7872 466.74 61.4672 466.824 62.8952C469.68 59.2832 473.082 56.4272 477.03 54.3272C481.062 52.1432 485.472 51.0512 490.26 51.0512H490.638C497.442 51.0512 502.818 53.2772 506.766 57.7292C510.714 62.0972 512.688 68.2712 512.688 76.2512V118.209H487.614V81.9212C487.614 78.0572 486.942 75.2852 485.598 73.6052C484.338 71.9252 482.364 71.0852 479.676 71.0852H479.298C477.87 71.0852 476.568 71.4212 475.392 72.0932C474.216 72.6812 473.208 73.5632 472.368 74.7392C471.612 75.9152 471.024 77.3012 470.604 78.8972C470.184 80.4092 469.974 82.1312 469.974 84.0632V118.209H444.9Z" fill="white"></path>
<path d="M519.738 75.9992V74.8652C519.738 71.4212 520.494 68.2712 522.006 65.4152C523.602 62.4752 525.786 59.9552 528.558 57.8552C531.33 55.6712 534.564 53.9912 538.26 52.8152C541.956 51.5552 545.946 50.9252 550.23 50.9252H555.396C559.68 50.9252 563.67 51.5552 567.366 52.8152C571.146 53.9912 574.38 55.6712 577.068 57.8552C579.84 59.9552 582.024 62.4752 583.62 65.4152C585.216 68.2712 586.014 71.4212 586.014 74.8652V75.9992C586.014 79.3592 585.216 82.5092 583.62 85.4492C582.024 88.3892 579.84 90.9512 577.068 93.1352C574.38 95.2352 571.146 96.9152 567.366 98.1752C563.67 99.3512 559.68 99.9392 555.396 99.9392H554.64C554.304 99.9392 554.01 99.9392 553.758 99.9392C553.506 99.9392 553.212 99.9392 552.876 99.9392V105.231C553.632 105.231 554.262 105.231 554.766 105.231C555.354 105.231 556.026 105.231 556.782 105.231H558.168C562.452 105.231 566.4 105.693 570.012 106.617C573.708 107.541 576.9 108.885 579.588 110.649C582.276 112.329 584.376 114.345 585.888 116.697C587.484 119.049 588.282 121.611 588.282 124.383V125.643C588.282 128.499 587.484 131.103 585.888 133.455C584.292 135.891 582.108 137.991 579.336 139.755C576.564 141.519 573.33 142.863 569.634 143.787C565.938 144.795 561.99 145.299 557.79 145.299H550.104C545.904 145.299 541.956 144.795 538.26 143.787C534.564 142.863 531.33 141.519 528.558 139.755C525.786 137.991 523.602 135.891 522.006 133.455C520.41 131.103 519.612 128.499 519.612 125.643V123.501C519.612 119.721 520.998 116.319 523.77 113.295C526.542 110.271 530.28 107.919 534.984 106.239V96.9152C530.364 94.8992 526.668 92.0852 523.896 88.4732C521.124 84.7772 519.738 80.6192 519.738 75.9992ZM543.804 75.3692V77.3852C543.804 78.5612 544.056 79.6532 544.56 80.6612C545.064 81.5852 545.694 82.3832 546.45 83.0552C547.206 83.7272 548.046 84.2732 548.97 84.6932C549.978 85.0292 550.944 85.1972 551.868 85.1972H553.884C554.808 85.1972 555.732 85.0292 556.656 84.6932C557.664 84.2732 558.546 83.7272 559.302 83.0552C560.058 82.3832 560.688 81.5852 561.192 80.6612C561.696 79.6532 561.948 78.5612 561.948 77.3852V75.3692C561.948 74.1932 561.696 73.1432 561.192 72.2192C560.688 71.2112 560.058 70.3712 559.302 69.6992C558.546 69.0272 557.664 68.5232 556.656 68.1872C555.732 67.7672 554.808 67.5572 553.884 67.5572H551.868C550.944 67.5572 549.978 67.7672 548.97 68.1872C548.046 68.5232 547.206 69.0272 546.45 69.6992C545.694 70.3712 545.064 71.2112 544.56 72.2192C544.056 73.1432 543.804 74.1932 543.804 75.3692ZM544.308 122.619V124.257C544.308 125.433 544.98 126.483 546.324 127.407C547.668 128.415 549.432 128.919 551.616 128.919H556.782C559.05 128.919 560.898 128.415 562.326 127.407C563.838 126.399 564.594 125.349 564.594 124.257V122.619C564.594 121.527 563.838 120.477 562.326 119.469C560.898 118.461 559.05 117.957 556.782 117.957H551.616C549.432 117.957 547.668 118.419 546.324 119.343C544.98 120.351 544.308 121.443 544.308 122.619ZM586.14 41.6012L577.572 58.9892L561.444 51.4292C562.116 48.8252 562.788 46.7252 563.46 45.1292C564.216 43.5332 564.888 42.3572 565.476 41.6012H586.14Z" fill="white"></path>
<path d="M626.01 119.973C620.802 119.973 616.056 119.175 611.772 117.579C607.572 115.983 603.96 113.715 600.936 110.775C597.912 107.835 595.56 104.307 593.88 100.191C592.284 96.0752 591.486 91.4972 591.486 86.4572V83.9372C591.486 79.1492 592.284 74.7392 593.88 70.7072C595.56 66.6752 597.87 63.2312 600.81 60.3752C603.75 57.4352 607.236 55.1672 611.268 53.5712C615.384 51.8912 619.878 51.0512 624.75 51.0512H626.64C631.176 51.0512 635.334 51.8072 639.114 53.3192C642.978 54.7472 646.296 56.8052 649.068 59.4932C651.924 62.0972 654.108 65.2052 655.62 68.8172C657.216 72.4292 658.014 76.3352 658.014 80.5352V91.2452H615.3V91.3712C615.552 92.9672 616.014 94.3952 616.686 95.6552C617.358 96.8312 618.198 97.8392 619.206 98.6792C620.298 99.5192 621.558 100.149 622.986 100.569C624.414 100.989 626.01 101.199 627.774 101.199H628.908C632.016 101.199 634.956 100.569 637.728 99.3092C640.584 98.0492 643.062 96.5372 645.162 94.7732L655.62 111.027C654.024 112.203 652.134 113.337 649.95 114.429C647.85 115.521 645.582 116.487 643.146 117.327C640.794 118.083 638.358 118.713 635.838 119.217C633.318 119.721 630.924 119.973 628.656 119.973H626.01ZM615.93 78.1412H634.452V77.3852C634.452 75.7892 634.242 74.4032 633.822 73.2272C633.486 71.9672 632.94 70.9592 632.184 70.2032C631.512 69.3632 630.672 68.7332 629.664 68.3132C628.74 67.8932 627.69 67.6832 626.514 67.6832H625.38C624.204 67.6832 623.112 67.9352 622.104 68.4392C621.096 68.8592 620.172 69.5312 619.332 70.4552C618.576 71.2952 617.904 72.3872 617.316 73.7312C616.728 74.9912 616.266 76.4612 615.93 78.1412Z" fill="white"></path>
<path d="M666.012 118.209V52.6892H685.92C686.34 54.0332 686.718 55.6292 687.054 57.4772C687.474 59.3252 687.726 60.9212 687.81 62.2652C690.246 59.3252 693.144 57.0152 696.504 55.3352C699.948 53.5712 703.728 52.6892 707.844 52.6892H709.86V75.6212C709.02 75.2852 708.012 75.0752 706.836 74.9912C705.744 74.8232 704.652 74.7392 703.56 74.7392C701.712 74.7392 699.99 74.9912 698.394 75.4952C696.882 75.9152 695.58 76.5452 694.488 77.3852C693.396 78.2252 692.556 79.2332 691.968 80.4092C691.38 81.5852 691.086 82.8452 691.086 84.1892V118.209H666.012Z" fill="white"></path>
</svg>