<svg xmlns="http://www.w3.org/2000/svg" viewBox="0 0 168 168">
<rect width="168" height="168" rx="30.5455" fill="#fff"/>
<path d="M70.6363 97.3643L30.5454 137.455H57.2727L84 110.728L70.6363 97.3643Z" fill="#02ABFF"/>
<path d="M30.5454 137.455V110.728L57.2727 84.0005H84L110.727 110.728V137.455L70.6363 97.3641L30.5454 137.455Z" fill="#10E2F0"/>
<path d="M84 84.0007H57.2727L30.5454 57.2734H57.2727L84 84.0007Z" fill="#02ABFF"/>
<path d="M110.727 110.728L84 84.0005H110.727L137.455 110.728H110.727Z" fill="#75F6FF"/>
<path d="M110.727 30.5459L84 57.2732L97.3636 70.6368L137.455 30.5459H110.727Z" fill="#75F6FF"/>
<path d="M57.2727 57.2732V30.5459L97.3636 70.6368L137.455 30.5459V57.2732L110.727 84.0004H84L57.2727 57.2732Z" fill="#10E2F0"/>
<path d="M110.727 110.728V137.455H137.455V110.728H110.727Z" fill="#20B5FF"/>
<path d="M57.2727 30.5459H30.5454V57.2732H57.2727V30.5459Z" fill="#20B5FF"/>
</svg>